<?xml version="1.0" encoding="UTF-8" standalone="no"?>
<!DOCTYPE svg PUBLIC "-//W3C//DTD SVG 1.1//EN"
 "http://www.w3.org/Graphics/SVG/1.1/DTD/svg11.dtd">
<!-- Generated by graphviz version 2.47.3 (20210619.1520)
 -->
<!-- Title: dependencies Pages: 1 -->
<svg width="352pt" height="247pt"
 viewBox="0.00 0.00 352.00 246.80" xmlns="http://www.w3.org/2000/svg" xmlns:xlink="http://www.w3.org/1999/xlink">
<g id="graph0" class="graph" transform="scale(1 1) rotate(0) translate(4 242.8)">
<title>dependencies</title>
<polygon fill="white" stroke="transparent" points="-4,4 -4,-242.8 348,-242.8 348,4 -4,4"/>
<text text-anchor="middle" x="172" y="-8.2" font-family="sans-serif" font-size="14.00">dependencies</text>
<g id="clust1" class="cluster">
<title>cluster_NotificationsModule</title>
<polygon fill="none" stroke="black" stroke-dasharray="1,5" points="8,-32.8 8,-230.8 336,-230.8 336,-32.8 8,-32.8"/>
</g>
<g id="clust3" class="cluster">
<title>cluster_NotificationsModule_imports</title>
<polygon fill="none" stroke="black" points="220,-40.8 220,-92.8 328,-92.8 328,-40.8 220,-40.8"/>
</g>
<g id="clust4" class="cluster">
<title>cluster_NotificationsModule_exports</title>
<polygon fill="none" stroke="black" points="108,-170.8 108,-222.8 258,-222.8 258,-170.8 108,-170.8"/>
</g>
<g id="clust6" class="cluster">
<title>cluster_NotificationsModule_providers</title>
<polygon fill="none" stroke="black" points="16,-40.8 16,-92.8 212,-92.8 212,-40.8 16,-40.8"/>
</g>
<!-- UsersModule -->
<g id="node1" class="node">
<title>UsersModule</title>
<polygon fill="#8dd3c7" stroke="black" points="319.92,-84.8 316.92,-88.8 295.92,-88.8 292.92,-84.8 228.08,-84.8 228.08,-48.8 319.92,-48.8 319.92,-84.8"/>
<text text-anchor="middle" x="274" y="-62.6" font-family="Times,serif" font-size="14.00">UsersModule</text>
</g>
<!-- NotificationsModule -->
<g id="node2" class="node">
<title>NotificationsModule</title>
<polygon fill="#8dd3c7" stroke="black" points="249.14,-149.8 246.14,-153.8 225.14,-153.8 222.14,-149.8 116.86,-149.8 116.86,-113.8 249.14,-113.8 249.14,-149.8"/>
<text text-anchor="middle" x="183" y="-127.6" font-family="Times,serif" font-size="14.00">NotificationsModule</text>
</g>
<!-- UsersModule&#45;&gt;NotificationsModule -->
<g id="edge1" class="edge">
<title>UsersModule&#45;&gt;NotificationsModule</title>
<path fill="none" stroke="black" d="M238.81,-84.91C238.81,-84.91 238.81,-103.79 238.81,-103.79"/>
<polygon fill="black" stroke="black" points="235.31,-103.79 238.81,-113.79 242.31,-103.79 235.31,-103.79"/>
</g>
<!-- NotificationsService  -->
<g id="node3" class="node">
<title>NotificationsService </title>
<polygon fill="#fb8072" stroke="black" points="250.07,-214.8 115.93,-214.8 115.93,-178.8 250.07,-178.8 250.07,-214.8"/>
<text text-anchor="middle" x="183" y="-192.6" font-family="Times,serif" font-size="14.00">NotificationsService </text>
</g>
<!-- NotificationsModule&#45;&gt;NotificationsService  -->
<g id="edge2" class="edge">
<title>NotificationsModule&#45;&gt;NotificationsService </title>
<path fill="none" stroke="black" stroke-dasharray="5,2" d="M183,-149.91C183,-149.91 183,-168.79 183,-168.79"/>
<polygon fill="black" stroke="black" points="179.5,-168.79 183,-178.79 186.5,-168.79 179.5,-168.79"/>
</g>
<!-- NotificationsService -->
<g id="node4" class="node">
<title>NotificationsService</title>
<ellipse fill="#fdb462" stroke="black" cx="114" cy="-66.8" rx="90.32" ry="18"/>
<text text-anchor="middle" x="114" y="-62.6" font-family="Times,serif" font-size="14.00">NotificationsService</text>
</g>
<!-- NotificationsService&#45;&gt;NotificationsModule -->
<g id="edge3" class="edge">
<title>NotificationsService&#45;&gt;NotificationsModule</title>
<path fill="none" stroke="black" d="M160.54,-82.53C160.54,-82.53 160.54,-103.45 160.54,-103.45"/>
<polygon fill="black" stroke="black" points="157.04,-103.45 160.54,-113.45 164.04,-103.45 157.04,-103.45"/>
</g>
</g>
</svg>
