<?xml version="1.0" encoding="UTF-8" standalone="no"?>
<!DOCTYPE svg PUBLIC "-//W3C//DTD SVG 1.1//EN"
 "http://www.w3.org/Graphics/SVG/1.1/DTD/svg11.dtd">
<!-- Generated by graphviz version 3.0.0 (20220226.1711)
 -->
<!-- Title: dependencies Pages: 1 -->
<svg width="744pt" height="247pt"
 viewBox="0.00 0.00 744.00 246.80" xmlns="http://www.w3.org/2000/svg" xmlns:xlink="http://www.w3.org/1999/xlink">
<g id="graph0" class="graph" transform="scale(1 1) rotate(0) translate(4 242.8)">
<title>dependencies</title>
<polygon fill="white" stroke="transparent" points="-4,4 -4,-242.8 740,-242.8 740,4 -4,4"/>
<text text-anchor="middle" x="368" y="-8.2" font-family="sans-serif" font-size="14.00">dependencies</text>
<g id="clust1" class="cluster">
<title>cluster_ChatsModule</title>
<polygon fill="none" stroke="black" stroke-dasharray="1,5" points="8,-32.8 8,-230.8 728,-230.8 728,-32.8 8,-32.8"/>
</g>
<g id="clust4" class="cluster">
<title>cluster_ChatsModule_exports</title>
<polygon fill="none" stroke="black" points="175,-170.8 175,-222.8 617,-222.8 617,-170.8 175,-170.8"/>
</g>
<g id="clust3" class="cluster">
<title>cluster_ChatsModule_imports</title>
<polygon fill="none" stroke="black" points="600,-40.8 600,-92.8 720,-92.8 720,-40.8 600,-40.8"/>
</g>
<g id="clust6" class="cluster">
<title>cluster_ChatsModule_providers</title>
<polygon fill="none" stroke="black" points="16,-40.8 16,-92.8 592,-92.8 592,-40.8 16,-40.8"/>
</g>
<!-- SocketsModule -->
<g id="node1" class="node">
<title>SocketsModule</title>
<polygon fill="#8dd3c7" stroke="black" points="711.6,-84.8 708.6,-88.8 687.6,-88.8 684.6,-84.8 608.4,-84.8 608.4,-48.8 711.6,-48.8 711.6,-84.8"/>
<text text-anchor="middle" x="660" y="-62.6" font-family="Times,serif" font-size="14.00">SocketsModule</text>
</g>
<!-- ChatsModule -->
<g id="node2" class="node">
<title>ChatsModule</title>
<polygon fill="#8dd3c7" stroke="black" points="417.94,-149.8 414.94,-153.8 393.94,-153.8 390.94,-149.8 326.06,-149.8 326.06,-113.8 417.94,-113.8 417.94,-149.8"/>
<text text-anchor="middle" x="372" y="-127.6" font-family="Times,serif" font-size="14.00">ChatsModule</text>
</g>
<!-- SocketsModule&#45;&gt;ChatsModule -->
<g id="edge1" class="edge">
<title>SocketsModule&#45;&gt;ChatsModule</title>
<path fill="none" stroke="black" d="M660.36,-84.82C660.36,-102.17 660.36,-125.8 660.36,-125.8 660.36,-125.8 428.01,-125.8 428.01,-125.8"/>
<polygon fill="black" stroke="black" points="428.01,-122.3 418.01,-125.8 428.01,-129.3 428.01,-122.3"/>
</g>
<!-- ChatMessagesService  -->
<g id="node3" class="node">
<title>ChatMessagesService </title>
<polygon fill="#fb8072" stroke="black" points="609.36,-214.8 466.64,-214.8 466.64,-178.8 609.36,-178.8 609.36,-214.8"/>
<text text-anchor="middle" x="538" y="-192.6" font-family="Times,serif" font-size="14.00">ChatMessagesService </text>
</g>
<!-- ChatsModule&#45;&gt;ChatMessagesService  -->
<g id="edge2" class="edge">
<title>ChatsModule&#45;&gt;ChatMessagesService </title>
<path fill="none" stroke="black" stroke-dasharray="5,2" d="M418,-137.8C463.15,-137.8 525.3,-137.8 525.3,-137.8 525.3,-137.8 525.3,-168.78 525.3,-168.78"/>
<polygon fill="black" stroke="black" points="521.8,-168.78 525.3,-178.78 528.8,-168.78 521.8,-168.78"/>
</g>
<!-- ChatParticipantsService  -->
<g id="node4" class="node">
<title>ChatParticipantsService </title>
<polygon fill="#fb8072" stroke="black" points="449.02,-214.8 294.98,-214.8 294.98,-178.8 449.02,-178.8 449.02,-214.8"/>
<text text-anchor="middle" x="372" y="-192.6" font-family="Times,serif" font-size="14.00">ChatParticipantsService </text>
</g>
<!-- ChatsModule&#45;&gt;ChatParticipantsService  -->
<g id="edge3" class="edge">
<title>ChatsModule&#45;&gt;ChatParticipantsService </title>
<path fill="none" stroke="black" stroke-dasharray="5,2" d="M372,-149.91C372,-149.91 372,-168.79 372,-168.79"/>
<polygon fill="black" stroke="black" points="368.5,-168.79 372,-178.79 375.5,-168.79 368.5,-168.79"/>
</g>
<!-- ChatsService  -->
<g id="node5" class="node">
<title>ChatsService </title>
<polygon fill="#fb8072" stroke="black" points="276.87,-214.8 183.13,-214.8 183.13,-178.8 276.87,-178.8 276.87,-214.8"/>
<text text-anchor="middle" x="230" y="-192.6" font-family="Times,serif" font-size="14.00">ChatsService </text>
</g>
<!-- ChatsModule&#45;&gt;ChatsService  -->
<g id="edge4" class="edge">
<title>ChatsModule&#45;&gt;ChatsService </title>
<path fill="none" stroke="black" stroke-dasharray="5,2" d="M325.9,-137.8C284.43,-137.8 230,-137.8 230,-137.8 230,-137.8 230,-168.78 230,-168.78"/>
<polygon fill="black" stroke="black" points="226.5,-168.78 230,-178.78 233.5,-168.78 226.5,-168.78"/>
</g>
<!-- ChatMessagesService -->
<g id="node6" class="node">
<title>ChatMessagesService</title>
<ellipse fill="#fdb462" stroke="black" cx="488" cy="-66.8" rx="95.56" ry="18"/>
<text text-anchor="middle" x="488" y="-62.6" font-family="Times,serif" font-size="14.00">ChatMessagesService</text>
</g>
<!-- ChatMessagesService&#45;&gt;ChatsModule -->
<g id="edge5" class="edge">
<title>ChatMessagesService&#45;&gt;ChatsModule</title>
<path fill="none" stroke="black" d="M404.97,-75.84C404.97,-75.84 404.97,-103.76 404.97,-103.76"/>
<polygon fill="black" stroke="black" points="401.47,-103.76 404.97,-113.76 408.47,-103.76 401.47,-103.76"/>
</g>
<!-- ChatParticipantsService -->
<g id="node7" class="node">
<title>ChatParticipantsService</title>
<ellipse fill="#fdb462" stroke="black" cx="270" cy="-66.8" rx="103.65" ry="18"/>
<text text-anchor="middle" x="270" y="-62.6" font-family="Times,serif" font-size="14.00">ChatParticipantsService</text>
</g>
<!-- ChatParticipantsService&#45;&gt;ChatsModule -->
<g id="edge6" class="edge">
<title>ChatParticipantsService&#45;&gt;ChatsModule</title>
<path fill="none" stroke="black" d="M350.05,-78.42C350.05,-78.42 350.05,-103.65 350.05,-103.65"/>
<polygon fill="black" stroke="black" points="346.55,-103.65 350.05,-113.65 353.55,-103.65 346.55,-103.65"/>
</g>
<!-- ChatsService -->
<g id="node8" class="node">
<title>ChatsService</title>
<ellipse fill="#fdb462" stroke="black" cx="86" cy="-66.8" rx="61.98" ry="18"/>
<text text-anchor="middle" x="86" y="-62.6" font-family="Times,serif" font-size="14.00">ChatsService</text>
</g>
<!-- ChatsService&#45;&gt;ChatsModule -->
<g id="edge7" class="edge">
<title>ChatsService&#45;&gt;ChatsModule</title>
<path fill="none" stroke="black" d="M86,-84.82C86,-102.17 86,-125.8 86,-125.8 86,-125.8 316.05,-125.8 316.05,-125.8"/>
<polygon fill="black" stroke="black" points="316.05,-129.3 326.05,-125.8 316.05,-122.3 316.05,-129.3"/>
</g>
</g>
</svg>
