<?xml version="1.0" encoding="UTF-8" standalone="no"?>
<!DOCTYPE svg PUBLIC "-//W3C//DTD SVG 1.1//EN"
 "http://www.w3.org/Graphics/SVG/1.1/DTD/svg11.dtd">
<!-- Generated by graphviz version 2.47.3 (20210619.1520)
 -->
<!-- Title: dependencies Pages: 1 -->
<svg width="794pt" height="247pt"
 viewBox="0.00 0.00 794.00 246.80" xmlns="http://www.w3.org/2000/svg" xmlns:xlink="http://www.w3.org/1999/xlink">
<g id="graph0" class="graph" transform="scale(1 1) rotate(0) translate(4 242.8)">
<title>dependencies</title>
<polygon fill="white" stroke="transparent" points="-4,4 -4,-242.8 790,-242.8 790,4 -4,4"/>
<text text-anchor="middle" x="393" y="-8.2" font-family="sans-serif" font-size="14.00">dependencies</text>
<g id="clust1" class="cluster">
<title>cluster_AuthModule</title>
<polygon fill="none" stroke="black" stroke-dasharray="1,5" points="8,-32.8 8,-230.8 778,-230.8 778,-32.8 8,-32.8"/>
</g>
<g id="clust6" class="cluster">
<title>cluster_AuthModule_providers</title>
<polygon fill="none" stroke="black" points="263,-40.8 263,-92.8 770,-92.8 770,-40.8 263,-40.8"/>
</g>
<g id="clust3" class="cluster">
<title>cluster_AuthModule_imports</title>
<polygon fill="none" stroke="black" points="16,-40.8 16,-92.8 255,-92.8 255,-40.8 16,-40.8"/>
</g>
<g id="clust4" class="cluster">
<title>cluster_AuthModule_exports</title>
<polygon fill="none" stroke="black" points="275,-170.8 275,-222.8 381,-222.8 381,-170.8 275,-170.8"/>
</g>
<!-- SendGridModule -->
<g id="node1" class="node">
<title>SendGridModule</title>
<polygon fill="#8dd3c7" stroke="black" points="246.7,-84.8 243.7,-88.8 222.7,-88.8 219.7,-84.8 133.3,-84.8 133.3,-48.8 246.7,-48.8 246.7,-84.8"/>
<text text-anchor="middle" x="190" y="-62.6" font-family="Times,serif" font-size="14.00">SendGridModule</text>
</g>
<!-- AuthModule -->
<g id="node3" class="node">
<title>AuthModule</title>
<polygon fill="#8dd3c7" stroke="black" points="371.55,-149.8 368.55,-153.8 347.55,-153.8 344.55,-149.8 284.45,-149.8 284.45,-113.8 371.55,-113.8 371.55,-149.8"/>
<text text-anchor="middle" x="328" y="-127.6" font-family="Times,serif" font-size="14.00">AuthModule</text>
</g>
<!-- SendGridModule&#45;&gt;AuthModule -->
<g id="edge1" class="edge">
<title>SendGridModule&#45;&gt;AuthModule</title>
<path fill="none" stroke="black" d="M190,-84.82C190,-102.17 190,-125.8 190,-125.8 190,-125.8 274.34,-125.8 274.34,-125.8"/>
<polygon fill="black" stroke="black" points="274.34,-129.3 284.34,-125.8 274.34,-122.3 274.34,-129.3"/>
</g>
<!-- UsersModule -->
<g id="node2" class="node">
<title>UsersModule</title>
<polygon fill="#8dd3c7" stroke="black" points="115.92,-84.8 112.92,-88.8 91.92,-88.8 88.92,-84.8 24.08,-84.8 24.08,-48.8 115.92,-48.8 115.92,-84.8"/>
<text text-anchor="middle" x="70" y="-62.6" font-family="Times,serif" font-size="14.00">UsersModule</text>
</g>
<!-- UsersModule&#45;&gt;AuthModule -->
<g id="edge2" class="edge">
<title>UsersModule&#45;&gt;AuthModule</title>
<path fill="none" stroke="black" d="M70,-85.08C70,-106.12 70,-137.8 70,-137.8 70,-137.8 274.23,-137.8 274.23,-137.8"/>
<polygon fill="black" stroke="black" points="274.23,-141.3 284.23,-137.8 274.23,-134.3 274.23,-141.3"/>
</g>
<!-- AuthService  -->
<g id="node4" class="node">
<title>AuthService </title>
<polygon fill="#fb8072" stroke="black" points="372.98,-214.8 283.02,-214.8 283.02,-178.8 372.98,-178.8 372.98,-214.8"/>
<text text-anchor="middle" x="328" y="-192.6" font-family="Times,serif" font-size="14.00">AuthService </text>
</g>
<!-- AuthModule&#45;&gt;AuthService  -->
<g id="edge3" class="edge">
<title>AuthModule&#45;&gt;AuthService </title>
<path fill="none" stroke="black" stroke-dasharray="5,2" d="M328,-149.91C328,-149.91 328,-168.79 328,-168.79"/>
<polygon fill="black" stroke="black" points="324.5,-168.79 328,-178.79 331.5,-168.79 324.5,-168.79"/>
</g>
<!-- AuthService -->
<g id="node5" class="node">
<title>AuthService</title>
<ellipse fill="#fdb462" stroke="black" cx="703" cy="-66.8" rx="59.11" ry="18"/>
<text text-anchor="middle" x="703" y="-62.6" font-family="Times,serif" font-size="14.00">AuthService</text>
</g>
<!-- AuthService&#45;&gt;AuthModule -->
<g id="edge4" class="edge">
<title>AuthService&#45;&gt;AuthModule</title>
<path fill="none" stroke="black" d="M703,-85.08C703,-106.12 703,-137.8 703,-137.8 703,-137.8 381.75,-137.8 381.75,-137.8"/>
<polygon fill="black" stroke="black" points="381.75,-134.3 371.75,-137.8 381.75,-141.3 381.75,-134.3"/>
</g>
<!-- JwtRefreshTokenStrategy -->
<g id="node6" class="node">
<title>JwtRefreshTokenStrategy</title>
<ellipse fill="#fdb462" stroke="black" cx="514" cy="-66.8" rx="111.15" ry="18"/>
<text text-anchor="middle" x="514" y="-62.6" font-family="Times,serif" font-size="14.00">JwtRefreshTokenStrategy</text>
</g>
<!-- JwtRefreshTokenStrategy&#45;&gt;AuthModule -->
<g id="edge5" class="edge">
<title>JwtRefreshTokenStrategy&#45;&gt;AuthModule</title>
<path fill="none" stroke="black" d="M514,-84.82C514,-102.17 514,-125.8 514,-125.8 514,-125.8 381.61,-125.8 381.61,-125.8"/>
<polygon fill="black" stroke="black" points="381.61,-122.3 371.61,-125.8 381.61,-129.3 381.61,-122.3"/>
</g>
<!-- JwtStrategy -->
<g id="node7" class="node">
<title>JwtStrategy</title>
<ellipse fill="#fdb462" stroke="black" cx="328" cy="-66.8" rx="56.76" ry="18"/>
<text text-anchor="middle" x="328" y="-62.6" font-family="Times,serif" font-size="14.00">JwtStrategy</text>
</g>
<!-- JwtStrategy&#45;&gt;AuthModule -->
<g id="edge6" class="edge">
<title>JwtStrategy&#45;&gt;AuthModule</title>
<path fill="none" stroke="black" d="M328,-84.91C328,-84.91 328,-103.79 328,-103.79"/>
<polygon fill="black" stroke="black" points="324.5,-103.79 328,-113.79 331.5,-103.79 324.5,-103.79"/>
</g>
</g>
</svg>
