<?xml version="1.0" encoding="UTF-8" standalone="no"?>
<!DOCTYPE svg PUBLIC "-//W3C//DTD SVG 1.1//EN"
 "http://www.w3.org/Graphics/SVG/1.1/DTD/svg11.dtd">
<!-- Generated by graphviz version 3.0.0 (20220226.1711)
 -->
<!-- Title: dependencies Pages: 1 -->
<svg width="3202pt" height="421pt"
 viewBox="0.00 0.00 3202.00 420.80" xmlns="http://www.w3.org/2000/svg" xmlns:xlink="http://www.w3.org/1999/xlink">
<g id="graph0" class="graph" transform="scale(1 1) rotate(0) translate(4 416.8)">
<title>dependencies</title>
<polygon fill="white" stroke="transparent" points="-4,4 -4,-416.8 3198,-416.8 3198,4 -4,4"/>
<text text-anchor="middle" x="1597" y="-8.2" font-family="sans-serif" font-size="14.00">dependencies</text>
<g id="clust1" class="cluster">
<title>cluster_AppModule</title>
<polygon fill="none" stroke="black" stroke-dasharray="1,5" points="790,-108.8 790,-396.8 1395,-396.8 1395,-108.8 790,-108.8"/>
</g>
<g id="clust3" class="cluster">
<title>cluster_AppModule_imports</title>
<polygon fill="none" stroke="black" points="798,-116.8 798,-320.8 1387,-320.8 1387,-116.8 798,-116.8"/>
</g>
<g id="clust7" class="cluster">
<title>cluster_AuthModule</title>
<polygon fill="none" stroke="black" stroke-dasharray="1,5" points="8,-108.8 8,-176.8 782,-176.8 782,-108.8 8,-108.8"/>
</g>
<g id="clust9" class="cluster">
<title>cluster_AuthModule_imports</title>
<polygon fill="none" stroke="black" points="644,-116.8 644,-168.8 774,-168.8 774,-116.8 644,-116.8"/>
</g>
<g id="clust10" class="cluster">
<title>cluster_AuthModule_exports</title>
<polygon fill="none" stroke="black" points="530,-116.8 530,-168.8 636,-168.8 636,-116.8 530,-116.8"/>
</g>
<g id="clust12" class="cluster">
<title>cluster_AuthModule_providers</title>
<polygon fill="none" stroke="black" points="16,-116.8 16,-168.8 522,-168.8 522,-116.8 16,-116.8"/>
</g>
<g id="clust13" class="cluster">
<title>cluster_ChatsModule</title>
<polygon fill="none" stroke="black" stroke-dasharray="1,5" points="1403,-336.8 1403,-404.8 2445,-404.8 2445,-336.8 1403,-336.8"/>
</g>
<g id="clust16" class="cluster">
<title>cluster_ChatsModule_exports</title>
<polygon fill="none" stroke="black" points="1995,-344.8 1995,-396.8 2437,-396.8 2437,-344.8 1995,-344.8"/>
</g>
<g id="clust18" class="cluster">
<title>cluster_ChatsModule_providers</title>
<polygon fill="none" stroke="black" points="1411,-344.8 1411,-396.8 1987,-396.8 1987,-344.8 1411,-344.8"/>
</g>
<g id="clust19" class="cluster">
<title>cluster_ConfigModule</title>
<polygon fill="none" stroke="black" stroke-dasharray="1,5" points="1403,-184.8 1403,-252.8 1693,-252.8 1693,-184.8 1403,-184.8"/>
</g>
<g id="clust22" class="cluster">
<title>cluster_ConfigModule_exports</title>
<polygon fill="none" stroke="black" points="1569,-192.8 1569,-244.8 1685,-244.8 1685,-192.8 1569,-192.8"/>
</g>
<g id="clust24" class="cluster">
<title>cluster_ConfigModule_providers</title>
<polygon fill="none" stroke="black" points="1411,-192.8 1411,-244.8 1561,-244.8 1561,-192.8 1411,-192.8"/>
</g>
<g id="clust31" class="cluster">
<title>cluster_FilesModule</title>
<polygon fill="none" stroke="black" stroke-dasharray="1,5" points="1701,-184.8 1701,-252.8 1963,-252.8 1963,-184.8 1701,-184.8"/>
</g>
<g id="clust34" class="cluster">
<title>cluster_FilesModule_exports</title>
<polygon fill="none" stroke="black" points="1851,-192.8 1851,-244.8 1955,-244.8 1955,-192.8 1851,-192.8"/>
</g>
<g id="clust36" class="cluster">
<title>cluster_FilesModule_providers</title>
<polygon fill="none" stroke="black" points="1709,-192.8 1709,-244.8 1843,-244.8 1843,-192.8 1709,-192.8"/>
</g>
<g id="clust43" class="cluster">
<title>cluster_NotificationsModule</title>
<polygon fill="none" stroke="black" stroke-dasharray="1,5" points="1403,-260.8 1403,-328.8 1773,-328.8 1773,-260.8 1403,-260.8"/>
</g>
<g id="clust46" class="cluster">
<title>cluster_NotificationsModule_exports</title>
<polygon fill="none" stroke="black" points="1615,-268.8 1615,-320.8 1765,-320.8 1765,-268.8 1615,-268.8"/>
</g>
<g id="clust48" class="cluster">
<title>cluster_NotificationsModule_providers</title>
<polygon fill="none" stroke="black" points="1411,-268.8 1411,-320.8 1607,-320.8 1607,-268.8 1411,-268.8"/>
</g>
<g id="clust49" class="cluster">
<title>cluster_SendMailModule</title>
<polygon fill="none" stroke="black" stroke-dasharray="1,5" points="535,-32.8 535,-100.8 863,-100.8 863,-32.8 535,-32.8"/>
</g>
<g id="clust52" class="cluster">
<title>cluster_SendMailModule_exports</title>
<polygon fill="none" stroke="black" points="723,-40.8 723,-92.8 855,-92.8 855,-40.8 723,-40.8"/>
</g>
<g id="clust54" class="cluster">
<title>cluster_SendMailModule_providers</title>
<polygon fill="none" stroke="black" points="543,-40.8 543,-92.8 715,-92.8 715,-40.8 543,-40.8"/>
</g>
<g id="clust55" class="cluster">
<title>cluster_SocketsModule</title>
<polygon fill="none" stroke="black" stroke-dasharray="1,5" points="1781,-260.8 1781,-328.8 2083,-328.8 2083,-260.8 1781,-260.8"/>
</g>
<g id="clust58" class="cluster">
<title>cluster_SocketsModule_exports</title>
<polygon fill="none" stroke="black" points="1953,-268.8 1953,-320.8 2075,-320.8 2075,-268.8 1953,-268.8"/>
</g>
<g id="clust60" class="cluster">
<title>cluster_SocketsModule_providers</title>
<polygon fill="none" stroke="black" points="1789,-268.8 1789,-320.8 1945,-320.8 1945,-268.8 1789,-268.8"/>
</g>
<g id="clust61" class="cluster">
<title>cluster_UsersModule</title>
<polygon fill="none" stroke="black" stroke-dasharray="1,5" points="1971,-184.8 1971,-252.8 3186,-252.8 3186,-184.8 1971,-184.8"/>
</g>
<g id="clust64" class="cluster">
<title>cluster_UsersModule_exports</title>
<polygon fill="none" stroke="black" points="2663,-192.8 2663,-244.8 3178,-244.8 3178,-192.8 2663,-192.8"/>
</g>
<g id="clust66" class="cluster">
<title>cluster_UsersModule_providers</title>
<polygon fill="none" stroke="black" points="1979,-192.8 1979,-244.8 2655,-244.8 2655,-192.8 1979,-192.8"/>
</g>
<!-- AuthModule -->
<g id="node1" class="node">
<title>AuthModule</title>
<polygon fill="#8dd3c7" stroke="black" points="1106.55,-236.8 1103.55,-240.8 1082.55,-240.8 1079.55,-236.8 1019.45,-236.8 1019.45,-200.8 1106.55,-200.8 1106.55,-236.8"/>
<text text-anchor="middle" x="1063" y="-214.6" font-family="Times,serif" font-size="14.00">AuthModule</text>
</g>
<!-- AppModule -->
<g id="node10" class="node">
<title>AppModule</title>
<polygon fill="#8dd3c7" stroke="black" points="1041.66,-388.8 1038.66,-392.8 1017.66,-392.8 1014.66,-388.8 958.34,-388.8 958.34,-352.8 1041.66,-352.8 1041.66,-388.8"/>
<text text-anchor="middle" x="1000" y="-366.6" font-family="Times,serif" font-size="14.00">AppModule</text>
</g>
<!-- AuthModule&#45;&gt;AppModule -->
<g id="edge1" class="edge">
<title>AuthModule&#45;&gt;AppModule</title>
<path fill="none" stroke="black" d="M1026.76,-236.83C1026.76,-236.83 1026.76,-342.79 1026.76,-342.79"/>
<polygon fill="black" stroke="black" points="1023.26,-342.79 1026.76,-352.79 1030.26,-342.79 1023.26,-342.79"/>
</g>
<!-- AuthService  -->
<g id="node12" class="node">
<title>AuthService </title>
<polygon fill="#fb8072" stroke="black" points="627.98,-160.8 538.02,-160.8 538.02,-124.8 627.98,-124.8 627.98,-160.8"/>
<text text-anchor="middle" x="583" y="-138.6" font-family="Times,serif" font-size="14.00">AuthService </text>
</g>
<!-- AuthModule&#45;&gt;AuthService  -->
<g id="edge12" class="edge">
<title>AuthModule&#45;&gt;AuthService </title>
<path fill="none" stroke="black" stroke-dasharray="5,2" d="M1019.13,-212.8C900.64,-212.8 583,-212.8 583,-212.8 583,-212.8 583,-170.83 583,-170.83"/>
<polygon fill="black" stroke="black" points="586.5,-170.83 583,-160.83 579.5,-170.83 586.5,-170.83"/>
</g>
<!-- ChatsModule -->
<g id="node2" class="node">
<title>ChatsModule</title>
<polygon fill="#8dd3c7" stroke="black" points="1378.94,-312.8 1375.94,-316.8 1354.94,-316.8 1351.94,-312.8 1287.06,-312.8 1287.06,-276.8 1378.94,-276.8 1378.94,-312.8"/>
<text text-anchor="middle" x="1333" y="-290.6" font-family="Times,serif" font-size="14.00">ChatsModule</text>
</g>
<!-- ChatsModule&#45;&gt;AppModule -->
<g id="edge2" class="edge">
<title>ChatsModule&#45;&gt;AppModule</title>
<path fill="none" stroke="black" d="M1286.98,-294.8C1203.19,-294.8 1034.3,-294.8 1034.3,-294.8 1034.3,-294.8 1034.3,-342.79 1034.3,-342.79"/>
<polygon fill="black" stroke="black" points="1030.8,-342.79 1034.3,-352.79 1037.8,-342.79 1030.8,-342.79"/>
</g>
<!-- ChatMessagesService  -->
<g id="node16" class="node">
<title>ChatMessagesService </title>
<polygon fill="#fb8072" stroke="black" points="2429.36,-388.8 2286.64,-388.8 2286.64,-352.8 2429.36,-352.8 2429.36,-388.8"/>
<text text-anchor="middle" x="2358" y="-366.6" font-family="Times,serif" font-size="14.00">ChatMessagesService </text>
</g>
<!-- ChatsModule&#45;&gt;ChatMessagesService  -->
<g id="edge17" class="edge">
<title>ChatsModule&#45;&gt;ChatMessagesService </title>
<path fill="none" stroke="black" stroke-dasharray="5,2" d="M1326.47,-312.97C1326.47,-316.85 1326.47,-319.8 1326.47,-319.8 1326.47,-319.8 2324.75,-319.8 2324.75,-319.8 2324.75,-319.8 2324.75,-342.68 2324.75,-342.68"/>
<polygon fill="black" stroke="black" points="2321.26,-342.68 2324.75,-352.68 2328.26,-342.68 2321.26,-342.68"/>
</g>
<!-- ChatParticipantsService  -->
<g id="node17" class="node">
<title>ChatParticipantsService </title>
<polygon fill="#fb8072" stroke="black" points="2269.02,-388.8 2114.98,-388.8 2114.98,-352.8 2269.02,-352.8 2269.02,-388.8"/>
<text text-anchor="middle" x="2192" y="-366.6" font-family="Times,serif" font-size="14.00">ChatParticipantsService </text>
</g>
<!-- ChatsModule&#45;&gt;ChatParticipantsService  -->
<g id="edge18" class="edge">
<title>ChatsModule&#45;&gt;ChatParticipantsService </title>
<path fill="none" stroke="black" stroke-dasharray="5,2" d="M1313.41,-313.04C1313.41,-320.23 1313.41,-326.8 1313.41,-326.8 1313.41,-326.8 2122.15,-326.8 2122.15,-326.8 2122.15,-326.8 2122.15,-342.65 2122.15,-342.65"/>
<polygon fill="black" stroke="black" points="2118.65,-342.65 2122.15,-352.65 2125.65,-342.65 2118.65,-342.65"/>
</g>
<!-- ChatsService  -->
<g id="node18" class="node">
<title>ChatsService </title>
<polygon fill="#fb8072" stroke="black" points="2096.87,-388.8 2003.13,-388.8 2003.13,-352.8 2096.87,-352.8 2096.87,-388.8"/>
<text text-anchor="middle" x="2050" y="-366.6" font-family="Times,serif" font-size="14.00">ChatsService </text>
</g>
<!-- ChatsModule&#45;&gt;ChatsService  -->
<g id="edge19" class="edge">
<title>ChatsModule&#45;&gt;ChatsService </title>
<path fill="none" stroke="black" stroke-dasharray="5,2" d="M1300.34,-312.91C1300.34,-322.7 1300.34,-332.8 1300.34,-332.8 1300.34,-332.8 2034.92,-332.8 2034.92,-332.8 2034.92,-332.8 2034.92,-342.69 2034.92,-342.69"/>
<polygon fill="black" stroke="black" points="2031.42,-342.69 2034.92,-352.69 2038.42,-342.69 2031.42,-342.69"/>
</g>
<!-- ConfigModule -->
<g id="node3" class="node">
<title>ConfigModule</title>
<polygon fill="#8dd3c7" stroke="black" points="1164.44,-160.8 1161.44,-164.8 1140.44,-164.8 1137.44,-160.8 1065.56,-160.8 1065.56,-124.8 1164.44,-124.8 1164.44,-160.8"/>
<text text-anchor="middle" x="1115" y="-138.6" font-family="Times,serif" font-size="14.00">ConfigModule</text>
</g>
<!-- ConfigModule&#45;&gt;AppModule -->
<g id="edge3" class="edge">
<title>ConfigModule&#45;&gt;AppModule</title>
<path fill="none" stroke="black" d="M1115.73,-160.84C1115.73,-212.76 1115.73,-358.8 1115.73,-358.8 1115.73,-358.8 1051.78,-358.8 1051.78,-358.8"/>
<polygon fill="black" stroke="black" points="1051.78,-355.3 1041.78,-358.8 1051.78,-362.3 1051.78,-355.3"/>
</g>
<!-- ConfigService  -->
<g id="node22" class="node">
<title>ConfigService </title>
<polygon fill="#fb8072" stroke="black" points="1677.37,-236.8 1576.63,-236.8 1576.63,-200.8 1677.37,-200.8 1677.37,-236.8"/>
<text text-anchor="middle" x="1627" y="-214.6" font-family="Times,serif" font-size="14.00">ConfigService </text>
</g>
<!-- ConfigModule&#45;&gt;ConfigService  -->
<g id="edge23" class="edge">
<title>ConfigModule&#45;&gt;ConfigService </title>
<path fill="none" stroke="black" stroke-dasharray="5,2" d="M1137.86,-160.94C1137.86,-167.26 1137.86,-172.8 1137.86,-172.8 1137.86,-172.8 1627,-172.8 1627,-172.8 1627,-172.8 1627,-190.62 1627,-190.62"/>
<polygon fill="black" stroke="black" points="1623.5,-190.62 1627,-200.62 1630.5,-190.62 1623.5,-190.62"/>
</g>
<!-- DatabaseModule -->
<g id="node4" class="node">
<title>DatabaseModule</title>
<polygon fill="#8dd3c7" stroke="black" points="1047.36,-160.8 1044.36,-164.8 1023.36,-164.8 1020.36,-160.8 936.64,-160.8 936.64,-124.8 1047.36,-124.8 1047.36,-160.8"/>
<text text-anchor="middle" x="992" y="-138.6" font-family="Times,serif" font-size="14.00">DatabaseModule</text>
</g>
<!-- DatabaseModule&#45;&gt;AppModule -->
<g id="edge4" class="edge">
<title>DatabaseModule&#45;&gt;AppModule</title>
<path fill="none" stroke="black" d="M978.52,-161.07C978.52,-161.07 978.52,-342.76 978.52,-342.76"/>
<polygon fill="black" stroke="black" points="975.02,-342.76 978.52,-352.76 982.02,-342.76 975.02,-342.76"/>
</g>
<!-- FilesModule -->
<g id="node5" class="node">
<title>FilesModule</title>
<polygon fill="#8dd3c7" stroke="black" points="1269.28,-160.8 1266.28,-164.8 1245.28,-164.8 1242.28,-160.8 1182.72,-160.8 1182.72,-124.8 1269.28,-124.8 1269.28,-160.8"/>
<text text-anchor="middle" x="1226" y="-138.6" font-family="Times,serif" font-size="14.00">FilesModule</text>
</g>
<!-- FilesModule&#45;&gt;AppModule -->
<g id="edge5" class="edge">
<title>FilesModule&#45;&gt;AppModule</title>
<path fill="none" stroke="black" d="M1261.35,-161.07C1261.35,-215.18 1261.35,-370.8 1261.35,-370.8 1261.35,-370.8 1051.7,-370.8 1051.7,-370.8"/>
<polygon fill="black" stroke="black" points="1051.7,-367.3 1041.7,-370.8 1051.7,-374.3 1051.7,-367.3"/>
</g>
<!-- FilesService  -->
<g id="node24" class="node">
<title>FilesService </title>
<polygon fill="#fb8072" stroke="black" points="1947.21,-236.8 1858.79,-236.8 1858.79,-200.8 1947.21,-200.8 1947.21,-236.8"/>
<text text-anchor="middle" x="1903" y="-214.6" font-family="Times,serif" font-size="14.00">FilesService </text>
</g>
<!-- FilesModule&#45;&gt;FilesService  -->
<g id="edge25" class="edge">
<title>FilesModule&#45;&gt;FilesService </title>
<path fill="none" stroke="black" stroke-dasharray="5,2" d="M1207.51,-160.99C1207.51,-164.34 1207.51,-166.8 1207.51,-166.8 1207.51,-166.8 1903,-166.8 1903,-166.8 1903,-166.8 1903,-190.61 1903,-190.61"/>
<polygon fill="black" stroke="black" points="1899.5,-190.61 1903,-200.61 1906.5,-190.61 1899.5,-190.61"/>
</g>
<!-- MultipartModule -->
<g id="node6" class="node">
<title>MultipartModule</title>
<polygon fill="#8dd3c7" stroke="black" points="918.44,-160.8 915.44,-164.8 894.44,-164.8 891.44,-160.8 805.56,-160.8 805.56,-124.8 918.44,-124.8 918.44,-160.8"/>
<text text-anchor="middle" x="862" y="-138.6" font-family="Times,serif" font-size="14.00">MultipartModule</text>
</g>
<!-- MultipartModule&#45;&gt;AppModule -->
<g id="edge6" class="edge">
<title>MultipartModule&#45;&gt;AppModule</title>
<path fill="none" stroke="black" d="M862,-161.07C862,-215.18 862,-370.8 862,-370.8 862,-370.8 948.22,-370.8 948.22,-370.8"/>
<polygon fill="black" stroke="black" points="948.22,-374.3 958.22,-370.8 948.22,-367.3 948.22,-374.3"/>
</g>
<!-- NotificationsModule -->
<g id="node7" class="node">
<title>NotificationsModule</title>
<polygon fill="#8dd3c7" stroke="black" points="1257.15,-236.8 1254.15,-240.8 1233.15,-240.8 1230.15,-236.8 1124.85,-236.8 1124.85,-200.8 1257.15,-200.8 1257.15,-236.8"/>
<text text-anchor="middle" x="1191" y="-214.6" font-family="Times,serif" font-size="14.00">NotificationsModule</text>
</g>
<!-- NotificationsModule&#45;&gt;AppModule -->
<g id="edge7" class="edge">
<title>NotificationsModule&#45;&gt;AppModule</title>
<path fill="none" stroke="black" d="M1224.16,-237C1224.16,-276.13 1224.16,-364.8 1224.16,-364.8 1224.16,-364.8 1051.9,-364.8 1051.9,-364.8"/>
<polygon fill="black" stroke="black" points="1051.9,-361.3 1041.9,-364.8 1051.9,-368.3 1051.9,-361.3"/>
</g>
<!-- NotificationsService  -->
<g id="node26" class="node">
<title>NotificationsService </title>
<polygon fill="#fb8072" stroke="black" points="1757.08,-312.8 1622.92,-312.8 1622.92,-276.8 1757.08,-276.8 1757.08,-312.8"/>
<text text-anchor="middle" x="1690" y="-290.6" font-family="Times,serif" font-size="14.00">NotificationsService </text>
</g>
<!-- NotificationsModule&#45;&gt;NotificationsService  -->
<g id="edge28" class="edge">
<title>NotificationsModule&#45;&gt;NotificationsService </title>
<path fill="none" stroke="black" stroke-dasharray="5,2" d="M1157.84,-236.84C1157.84,-249.36 1157.84,-263.8 1157.84,-263.8 1157.84,-263.8 1649.95,-263.8 1649.95,-263.8 1649.95,-263.8 1649.95,-266.77 1649.95,-266.77"/>
<polygon fill="black" stroke="black" points="1646.45,-266.77 1649.95,-276.77 1653.45,-266.77 1646.45,-266.77"/>
</g>
<!-- SocketsModule -->
<g id="node8" class="node">
<title>SocketsModule</title>
<polygon fill="#8dd3c7" stroke="black" points="1378.6,-236.8 1375.6,-240.8 1354.6,-240.8 1351.6,-236.8 1275.4,-236.8 1275.4,-200.8 1378.6,-200.8 1378.6,-236.8"/>
<text text-anchor="middle" x="1327" y="-214.6" font-family="Times,serif" font-size="14.00">SocketsModule</text>
</g>
<!-- SocketsModule&#45;&gt;ChatsModule -->
<g id="edge16" class="edge">
<title>SocketsModule&#45;&gt;ChatsModule</title>
<path fill="none" stroke="black" d="M1310.1,-236.81C1310.1,-236.81 1310.1,-266.65 1310.1,-266.65"/>
<polygon fill="black" stroke="black" points="1306.6,-266.65 1310.1,-276.65 1313.6,-266.65 1306.6,-266.65"/>
</g>
<!-- SocketsModule&#45;&gt;AppModule -->
<g id="edge8" class="edge">
<title>SocketsModule&#45;&gt;AppModule</title>
<path fill="none" stroke="black" d="M1281.36,-236.92C1281.36,-278.43 1281.36,-376.8 1281.36,-376.8 1281.36,-376.8 1051.82,-376.8 1051.82,-376.8"/>
<polygon fill="black" stroke="black" points="1051.82,-373.3 1041.82,-376.8 1051.82,-380.3 1051.82,-373.3"/>
</g>
<!-- SocketsService  -->
<g id="node30" class="node">
<title>SocketsService </title>
<polygon fill="#fb8072" stroke="black" points="2066.53,-312.8 1961.47,-312.8 1961.47,-276.8 2066.53,-276.8 2066.53,-312.8"/>
<text text-anchor="middle" x="2014" y="-290.6" font-family="Times,serif" font-size="14.00">SocketsService </text>
</g>
<!-- SocketsModule&#45;&gt;SocketsService  -->
<g id="edge33" class="edge">
<title>SocketsModule&#45;&gt;SocketsService </title>
<path fill="none" stroke="black" stroke-dasharray="5,2" d="M1332.92,-236.97C1332.92,-240.85 1332.92,-243.8 1332.92,-243.8 1332.92,-243.8 1974.25,-243.8 1974.25,-243.8 1974.25,-243.8 1974.25,-266.68 1974.25,-266.68"/>
<polygon fill="black" stroke="black" points="1970.75,-266.68 1974.25,-276.68 1977.75,-266.68 1970.75,-266.68"/>
</g>
<!-- UsersModule -->
<g id="node9" class="node">
<title>UsersModule</title>
<polygon fill="#8dd3c7" stroke="black" points="1378.94,-160.8 1375.94,-164.8 1354.94,-164.8 1351.94,-160.8 1287.06,-160.8 1287.06,-124.8 1378.94,-124.8 1378.94,-160.8"/>
<text text-anchor="middle" x="1333" y="-138.6" font-family="Times,serif" font-size="14.00">UsersModule</text>
</g>
<!-- UsersModule&#45;&gt;AuthModule -->
<g id="edge11" class="edge">
<title>UsersModule&#45;&gt;AuthModule</title>
<path fill="none" stroke="black" d="M1323.79,-160.84C1323.79,-174.09 1323.79,-189.8 1323.79,-189.8 1323.79,-189.8 1086.28,-189.8 1086.28,-189.8 1086.28,-189.8 1086.28,-190.88 1086.28,-190.88"/>
<polygon fill="black" stroke="black" points="1082.78,-190.6 1086.28,-200.6 1089.78,-190.6 1082.78,-190.6"/>
</g>
<!-- UsersModule&#45;&gt;NotificationsModule -->
<g id="edge27" class="edge">
<title>UsersModule&#45;&gt;NotificationsModule</title>
<path fill="none" stroke="black" d="M1342.04,-161.04C1342.04,-176.37 1342.04,-195.8 1342.04,-195.8 1342.04,-195.8 1232.42,-195.8 1232.42,-195.8 1232.42,-195.8 1232.42,-196.29 1232.42,-196.29"/>
<polygon fill="black" stroke="black" points="1228.92,-190.68 1232.42,-200.68 1235.92,-190.68 1228.92,-190.68"/>
</g>
<!-- UsersModule&#45;&gt;SocketsModule -->
<g id="edge32" class="edge">
<title>UsersModule&#45;&gt;SocketsModule</title>
<path fill="none" stroke="black" d="M1360.3,-160.81C1360.3,-160.81 1360.3,-190.65 1360.3,-190.65"/>
<polygon fill="black" stroke="black" points="1356.8,-190.65 1360.3,-200.65 1363.8,-190.65 1356.8,-190.65"/>
</g>
<!-- UsersModule&#45;&gt;AppModule -->
<g id="edge9" class="edge">
<title>UsersModule&#45;&gt;AppModule</title>
<path fill="none" stroke="black" d="M1305.54,-161.22C1305.54,-170.08 1305.54,-178.8 1305.54,-178.8 1305.54,-178.8 998.87,-178.8 998.87,-178.8 998.87,-178.8 998.87,-342.74 998.87,-342.74"/>
<polygon fill="black" stroke="black" points="995.37,-342.74 998.87,-352.74 1002.37,-342.74 995.37,-342.74"/>
</g>
<!-- UserNotificationTokensService  -->
<g id="node32" class="node">
<title>UserNotificationTokensService </title>
<polygon fill="#fb8072" stroke="black" points="3170.28,-236.8 2973.72,-236.8 2973.72,-200.8 3170.28,-200.8 3170.28,-236.8"/>
<text text-anchor="middle" x="3072" y="-214.6" font-family="Times,serif" font-size="14.00">UserNotificationTokensService </text>
</g>
<!-- UsersModule&#45;&gt;UserNotificationTokensService  -->
<g id="edge35" class="edge">
<title>UsersModule&#45;&gt;UserNotificationTokensService </title>
<path fill="none" stroke="black" stroke-dasharray="5,2" d="M1379.07,-130.8C1654.53,-130.8 3072,-130.8 3072,-130.8 3072,-130.8 3072,-190.57 3072,-190.57"/>
<polygon fill="black" stroke="black" points="3068.5,-190.57 3072,-200.57 3075.5,-190.57 3068.5,-190.57"/>
</g>
<!-- UserRefreshTokensService  -->
<g id="node33" class="node">
<title>UserRefreshTokensService </title>
<polygon fill="#fb8072" stroke="black" points="2955.17,-236.8 2782.83,-236.8 2782.83,-200.8 2955.17,-200.8 2955.17,-236.8"/>
<text text-anchor="middle" x="2869" y="-214.6" font-family="Times,serif" font-size="14.00">UserRefreshTokensService </text>
</g>
<!-- UsersModule&#45;&gt;UserRefreshTokensService  -->
<g id="edge36" class="edge">
<title>UsersModule&#45;&gt;UserRefreshTokensService </title>
<path fill="none" stroke="black" stroke-dasharray="5,2" d="M1378.97,-135.8C1634.54,-135.8 2869,-135.8 2869,-135.8 2869,-135.8 2869,-190.79 2869,-190.79"/>
<polygon fill="black" stroke="black" points="2865.5,-190.79 2869,-200.79 2872.5,-190.79 2865.5,-190.79"/>
</g>
<!-- UsersService  -->
<g id="node34" class="node">
<title>UsersService </title>
<polygon fill="#fb8072" stroke="black" points="2764.86,-236.8 2671.14,-236.8 2671.14,-200.8 2764.86,-200.8 2764.86,-236.8"/>
<text text-anchor="middle" x="2718" y="-214.6" font-family="Times,serif" font-size="14.00">UsersService </text>
</g>
<!-- UsersModule&#45;&gt;UsersService  -->
<g id="edge37" class="edge">
<title>UsersModule&#45;&gt;UsersService </title>
<path fill="none" stroke="black" stroke-dasharray="5,2" d="M1379.08,-140.8C1619.4,-140.8 2718,-140.8 2718,-140.8 2718,-140.8 2718,-190.71 2718,-190.71"/>
<polygon fill="black" stroke="black" points="2714.5,-190.71 2718,-200.71 2721.5,-190.71 2714.5,-190.71"/>
</g>
<!-- SendMailModule -->
<g id="node11" class="node">
<title>SendMailModule</title>
<polygon fill="#8dd3c7" stroke="black" points="765.99,-160.8 762.99,-164.8 741.99,-164.8 738.99,-160.8 652.01,-160.8 652.01,-124.8 765.99,-124.8 765.99,-160.8"/>
<text text-anchor="middle" x="709" y="-138.6" font-family="Times,serif" font-size="14.00">SendMailModule</text>
</g>
<!-- SendMailModule&#45;&gt;AuthModule -->
<g id="edge10" class="edge">
<title>SendMailModule&#45;&gt;AuthModule</title>
<path fill="none" stroke="black" d="M709,-160.97C709,-179.89 709,-206.8 709,-206.8 709,-206.8 1009.24,-206.8 1009.24,-206.8"/>
<polygon fill="black" stroke="black" points="1009.24,-210.3 1019.24,-206.8 1009.24,-203.3 1009.24,-210.3"/>
</g>
<!-- SendMailService  -->
<g id="node28" class="node">
<title>SendMailService </title>
<polygon fill="#fb8072" stroke="black" points="846.92,-84.8 731.08,-84.8 731.08,-48.8 846.92,-48.8 846.92,-84.8"/>
<text text-anchor="middle" x="789" y="-62.6" font-family="Times,serif" font-size="14.00">SendMailService </text>
</g>
<!-- SendMailModule&#45;&gt;SendMailService  -->
<g id="edge30" class="edge">
<title>SendMailModule&#45;&gt;SendMailService </title>
<path fill="none" stroke="black" stroke-dasharray="5,2" d="M748.52,-124.79C748.52,-124.79 748.52,-94.95 748.52,-94.95"/>
<polygon fill="black" stroke="black" points="752.02,-94.95 748.52,-84.95 745.02,-94.95 752.02,-94.95"/>
</g>
<!-- AuthService -->
<g id="node13" class="node">
<title>AuthService</title>
<ellipse fill="#fdb462" stroke="black" cx="83" cy="-142.8" rx="59.11" ry="18"/>
<text text-anchor="middle" x="83" y="-138.6" font-family="Times,serif" font-size="14.00">AuthService</text>
</g>
<!-- AuthService&#45;&gt;AuthModule -->
<g id="edge13" class="edge">
<title>AuthService&#45;&gt;AuthModule</title>
<path fill="none" stroke="black" d="M83,-161.03C83,-186.81 83,-230.8 83,-230.8 83,-230.8 1009.31,-230.8 1009.31,-230.8"/>
<polygon fill="black" stroke="black" points="1009.31,-234.3 1019.31,-230.8 1009.31,-227.3 1009.31,-234.3"/>
</g>
<!-- JwtRefreshTokenStrategy -->
<g id="node14" class="node">
<title>JwtRefreshTokenStrategy</title>
<ellipse fill="#fdb462" stroke="black" cx="403" cy="-142.8" rx="111.17" ry="18"/>
<text text-anchor="middle" x="403" y="-138.6" font-family="Times,serif" font-size="14.00">JwtRefreshTokenStrategy</text>
</g>
<!-- JwtRefreshTokenStrategy&#45;&gt;AuthModule -->
<g id="edge14" class="edge">
<title>JwtRefreshTokenStrategy&#45;&gt;AuthModule</title>
<path fill="none" stroke="black" d="M403,-160.81C403,-183.29 403,-218.8 403,-218.8 403,-218.8 1009.44,-218.8 1009.44,-218.8"/>
<polygon fill="black" stroke="black" points="1009.44,-222.3 1019.44,-218.8 1009.44,-215.3 1009.44,-222.3"/>
</g>
<!-- JwtStrategy -->
<g id="node15" class="node">
<title>JwtStrategy</title>
<ellipse fill="#fdb462" stroke="black" cx="217" cy="-142.8" rx="56.77" ry="18"/>
<text text-anchor="middle" x="217" y="-138.6" font-family="Times,serif" font-size="14.00">JwtStrategy</text>
</g>
<!-- JwtStrategy&#45;&gt;AuthModule -->
<g id="edge15" class="edge">
<title>JwtStrategy&#45;&gt;AuthModule</title>
<path fill="none" stroke="black" d="M217,-161C217,-185.16 217,-224.8 217,-224.8 217,-224.8 1009.3,-224.8 1009.3,-224.8"/>
<polygon fill="black" stroke="black" points="1009.3,-228.3 1019.3,-224.8 1009.3,-221.3 1009.3,-228.3"/>
</g>
<!-- ChatMessagesService -->
<g id="node19" class="node">
<title>ChatMessagesService</title>
<ellipse fill="#fdb462" stroke="black" cx="1883" cy="-370.8" rx="95.56" ry="18"/>
<text text-anchor="middle" x="1883" y="-366.6" font-family="Times,serif" font-size="14.00">ChatMessagesService</text>
</g>
<!-- ChatMessagesService&#45;&gt;ChatsModule -->
<g id="edge20" class="edge">
<title>ChatMessagesService&#45;&gt;ChatsModule</title>
<path fill="none" stroke="black" d="M1792.09,-365.11C1792.09,-356.16 1792.09,-339.8 1792.09,-339.8 1792.09,-339.8 1352.59,-339.8 1352.59,-339.8 1352.59,-339.8 1352.59,-322.84 1352.59,-322.84"/>
<polygon fill="black" stroke="black" points="1356.09,-322.84 1352.59,-312.84 1349.09,-322.84 1356.09,-322.84"/>
</g>
<!-- ChatParticipantsService -->
<g id="node20" class="node">
<title>ChatParticipantsService</title>
<ellipse fill="#fdb462" stroke="black" cx="1665" cy="-370.8" rx="103.65" ry="18"/>
<text text-anchor="middle" x="1665" y="-366.6" font-family="Times,serif" font-size="14.00">ChatParticipantsService</text>
</g>
<!-- ChatParticipantsService&#45;&gt;ChatsModule -->
<g id="edge21" class="edge">
<title>ChatParticipantsService&#45;&gt;ChatsModule</title>
<path fill="none" stroke="black" d="M1580.29,-360.2C1580.29,-353.77 1580.29,-346.8 1580.29,-346.8 1580.29,-346.8 1339.53,-346.8 1339.53,-346.8 1339.53,-346.8 1339.53,-322.99 1339.53,-322.99"/>
<polygon fill="black" stroke="black" points="1343.03,-322.99 1339.53,-312.99 1336.03,-322.99 1343.03,-322.99"/>
</g>
<!-- ChatsService -->
<g id="node21" class="node">
<title>ChatsService</title>
<ellipse fill="#fdb462" stroke="black" cx="1481" cy="-370.8" rx="61.98" ry="18"/>
<text text-anchor="middle" x="1481" y="-366.6" font-family="Times,serif" font-size="14.00">ChatsService</text>
</g>
<!-- ChatsService&#45;&gt;ChatsModule -->
<g id="edge22" class="edge">
<title>ChatsService&#45;&gt;ChatsModule</title>
<path fill="none" stroke="black" d="M1434.75,-382.8C1402.66,-382.8 1365.66,-382.8 1365.66,-382.8 1365.66,-382.8 1365.66,-323.03 1365.66,-323.03"/>
<polygon fill="black" stroke="black" points="1369.16,-323.03 1365.66,-313.03 1362.16,-323.03 1369.16,-323.03"/>
</g>
<!-- ConfigService -->
<g id="node23" class="node">
<title>ConfigService</title>
<ellipse fill="#fdb462" stroke="black" cx="1486" cy="-218.8" rx="66.64" ry="18"/>
<text text-anchor="middle" x="1486" y="-214.6" font-family="Times,serif" font-size="14.00">ConfigService</text>
</g>
<!-- ConfigService&#45;&gt;ConfigModule -->
<g id="edge24" class="edge">
<title>ConfigService&#45;&gt;ConfigModule</title>
<path fill="none" stroke="black" d="M1486,-200.48C1486,-192.01 1486,-183.8 1486,-183.8 1486,-183.8 1151.04,-183.8 1151.04,-183.8 1151.04,-183.8 1151.04,-170.9 1151.04,-170.9"/>
<polygon fill="black" stroke="black" points="1154.54,-170.9 1151.04,-160.9 1147.54,-170.9 1154.54,-170.9"/>
</g>
<!-- FilesService -->
<g id="node25" class="node">
<title>FilesService</title>
<ellipse fill="#fdb462" stroke="black" cx="1776" cy="-218.8" rx="58.55" ry="18"/>
<text text-anchor="middle" x="1776" y="-214.6" font-family="Times,serif" font-size="14.00">FilesService</text>
</g>
<!-- FilesService&#45;&gt;FilesModule -->
<g id="edge26" class="edge">
<title>FilesService&#45;&gt;FilesModule</title>
<path fill="none" stroke="black" d="M1737.26,-232.56C1737.26,-241.23 1737.26,-250.8 1737.26,-250.8 1737.26,-250.8 1265.37,-250.8 1265.37,-250.8 1265.37,-250.8 1265.37,-171.12 1265.37,-171.12"/>
<polygon fill="black" stroke="black" points="1268.87,-171.12 1265.37,-161.12 1261.87,-171.12 1268.87,-171.12"/>
</g>
<!-- NotificationsService -->
<g id="node27" class="node">
<title>NotificationsService</title>
<ellipse fill="#fdb462" stroke="black" cx="1509" cy="-294.8" rx="90.33" ry="18"/>
<text text-anchor="middle" x="1509" y="-290.6" font-family="Times,serif" font-size="14.00">NotificationsService</text>
</g>
<!-- NotificationsService&#45;&gt;NotificationsModule -->
<g id="edge29" class="edge">
<title>NotificationsService&#45;&gt;NotificationsModule</title>
<path fill="none" stroke="black" d="M1486,-277.36C1486,-273.64 1486,-270.8 1486,-270.8 1486,-270.8 1191,-270.8 1191,-270.8 1191,-270.8 1191,-246.99 1191,-246.99"/>
<polygon fill="black" stroke="black" points="1194.5,-246.99 1191,-236.99 1187.5,-246.99 1194.5,-246.99"/>
</g>
<!-- SendMailService -->
<g id="node29" class="node">
<title>SendMailService</title>
<ellipse fill="#fdb462" stroke="black" cx="629" cy="-66.8" rx="77.59" ry="18"/>
<text text-anchor="middle" x="629" y="-62.6" font-family="Times,serif" font-size="14.00">SendMailService</text>
</g>
<!-- SendMailService&#45;&gt;SendMailModule -->
<g id="edge31" class="edge">
<title>SendMailService&#45;&gt;SendMailModule</title>
<path fill="none" stroke="black" d="M679.27,-80.74C679.27,-80.74 679.27,-114.64 679.27,-114.64"/>
<polygon fill="black" stroke="black" points="675.77,-114.64 679.27,-124.64 682.77,-114.64 675.77,-114.64"/>
</g>
<!-- SocketsService -->
<g id="node31" class="node">
<title>SocketsService</title>
<ellipse fill="#fdb462" stroke="black" cx="1867" cy="-294.8" rx="70.07" ry="18"/>
<text text-anchor="middle" x="1867" y="-290.6" font-family="Times,serif" font-size="14.00">SocketsService</text>
</g>
<!-- SocketsService&#45;&gt;SocketsModule -->
<g id="edge34" class="edge">
<title>SocketsService&#45;&gt;SocketsModule</title>
<path fill="none" stroke="black" d="M1815.87,-282.36C1815.87,-271.27 1815.87,-256.8 1815.87,-256.8 1815.87,-256.8 1355.73,-256.8 1355.73,-256.8 1355.73,-256.8 1355.73,-246.91 1355.73,-246.91"/>
<polygon fill="black" stroke="black" points="1359.23,-246.91 1355.73,-236.91 1352.23,-246.91 1359.23,-246.91"/>
</g>
<!-- UserNotificationTokensService -->
<g id="node35" class="node">
<title>UserNotificationTokensService</title>
<ellipse fill="#fdb462" stroke="black" cx="2514" cy="-218.8" rx="133.14" ry="18"/>
<text text-anchor="middle" x="2514" y="-214.6" font-family="Times,serif" font-size="14.00">UserNotificationTokensService</text>
</g>
<!-- UserNotificationTokensService&#45;&gt;UsersModule -->
<g id="edge38" class="edge">
<title>UserNotificationTokensService&#45;&gt;UsersModule</title>
<path fill="none" stroke="black" d="M2514,-200.76C2514,-179.14 2514,-145.8 2514,-145.8 2514,-145.8 1388.93,-145.8 1388.93,-145.8"/>
<polygon fill="black" stroke="black" points="1388.93,-142.3 1378.93,-145.8 1388.93,-149.3 1388.93,-142.3"/>
</g>
<!-- UserRefreshTokensService -->
<g id="node36" class="node">
<title>UserRefreshTokensService</title>
<ellipse fill="#fdb462" stroke="black" cx="2246" cy="-218.8" rx="116.88" ry="18"/>
<text text-anchor="middle" x="2246" y="-214.6" font-family="Times,serif" font-size="14.00">UserRefreshTokensService</text>
</g>
<!-- UserRefreshTokensService&#45;&gt;UsersModule -->
<g id="edge39" class="edge">
<title>UserRefreshTokensService&#45;&gt;UsersModule</title>
<path fill="none" stroke="black" d="M2246,-200.58C2246,-180.43 2246,-150.8 2246,-150.8 2246,-150.8 1388.9,-150.8 1388.9,-150.8"/>
<polygon fill="black" stroke="black" points="1388.9,-147.3 1378.9,-150.8 1388.9,-154.3 1388.9,-147.3"/>
</g>
<!-- UsersService -->
<g id="node37" class="node">
<title>UsersService</title>
<ellipse fill="#fdb462" stroke="black" cx="2049" cy="-218.8" rx="61.97" ry="18"/>
<text text-anchor="middle" x="2049" y="-214.6" font-family="Times,serif" font-size="14.00">UsersService</text>
</g>
<!-- UsersService&#45;&gt;UsersModule -->
<g id="edge40" class="edge">
<title>UsersService&#45;&gt;UsersModule</title>
<path fill="none" stroke="black" d="M2049,-200.58C2049,-181.97 2049,-155.8 2049,-155.8 2049,-155.8 1388.88,-155.8 1388.88,-155.8"/>
<polygon fill="black" stroke="black" points="1388.88,-152.3 1378.88,-155.8 1388.88,-159.3 1388.88,-152.3"/>
</g>
</g>
</svg>
