<?xml version="1.0" encoding="UTF-8" standalone="no"?>
<!DOCTYPE svg PUBLIC "-//W3C//DTD SVG 1.1//EN"
 "http://www.w3.org/Graphics/SVG/1.1/DTD/svg11.dtd">
<!-- Generated by graphviz version 3.0.0 (20220226.1711)
 -->
<!-- Title: dependencies Pages: 1 -->
<svg width="716pt" height="247pt"
 viewBox="0.00 0.00 716.00 246.80" xmlns="http://www.w3.org/2000/svg" xmlns:xlink="http://www.w3.org/1999/xlink">
<g id="graph0" class="graph" transform="scale(1 1) rotate(0) translate(4 242.8)">
<title>dependencies</title>
<polygon fill="white" stroke="transparent" points="-4,4 -4,-242.8 712,-242.8 712,4 -4,4"/>
<text text-anchor="middle" x="354" y="-8.2" font-family="sans-serif" font-size="14.00">dependencies</text>
<g id="clust1" class="cluster">
<title>cluster_UsersModule</title>
<polygon fill="none" stroke="black" stroke-dasharray="1,5" points="8,-32.8 8,-230.8 700,-230.8 700,-32.8 8,-32.8"/>
</g>
<g id="clust4" class="cluster">
<title>cluster_UsersModule_exports</title>
<polygon fill="none" stroke="black" points="77,-170.8 77,-222.8 592,-222.8 592,-170.8 77,-170.8"/>
</g>
<g id="clust6" class="cluster">
<title>cluster_UsersModule_providers</title>
<polygon fill="none" stroke="black" points="16,-40.8 16,-92.8 692,-92.8 692,-40.8 16,-40.8"/>
</g>
<!-- UserNotificationTokensService  -->
<g id="node1" class="node">
<title>UserNotificationTokensService </title>
<polygon fill="#fb8072" stroke="black" points="584.28,-214.8 387.72,-214.8 387.72,-178.8 584.28,-178.8 584.28,-214.8"/>
<text text-anchor="middle" x="486" y="-192.6" font-family="Times,serif" font-size="14.00">UserNotificationTokensService </text>
</g>
<!-- UserRefreshTokensService  -->
<g id="node2" class="node">
<title>UserRefreshTokensService </title>
<polygon fill="#fb8072" stroke="black" points="369.17,-214.8 196.83,-214.8 196.83,-178.8 369.17,-178.8 369.17,-214.8"/>
<text text-anchor="middle" x="283" y="-192.6" font-family="Times,serif" font-size="14.00">UserRefreshTokensService </text>
</g>
<!-- UsersService  -->
<g id="node3" class="node">
<title>UsersService </title>
<polygon fill="#fb8072" stroke="black" points="178.86,-214.8 85.14,-214.8 85.14,-178.8 178.86,-178.8 178.86,-214.8"/>
<text text-anchor="middle" x="132" y="-192.6" font-family="Times,serif" font-size="14.00">UsersService </text>
</g>
<!-- UsersModule -->
<g id="node4" class="node">
<title>UsersModule</title>
<polygon fill="#8dd3c7" stroke="black" points="328.94,-149.8 325.94,-153.8 304.94,-153.8 301.94,-149.8 237.06,-149.8 237.06,-113.8 328.94,-113.8 328.94,-149.8"/>
<text text-anchor="middle" x="283" y="-127.6" font-family="Times,serif" font-size="14.00">UsersModule</text>
</g>
<!-- UsersModule&#45;&gt;UserNotificationTokensService  -->
<g id="edge1" class="edge">
<title>UsersModule&#45;&gt;UserNotificationTokensService </title>
<path fill="none" stroke="black" stroke-dasharray="5,2" d="M328.96,-137.8C359.37,-137.8 393.65,-137.8 393.65,-137.8 393.65,-137.8 393.65,-168.78 393.65,-168.78"/>
<polygon fill="black" stroke="black" points="390.15,-168.78 393.65,-178.78 397.15,-168.78 390.15,-168.78"/>
</g>
<!-- UsersModule&#45;&gt;UserRefreshTokensService  -->
<g id="edge2" class="edge">
<title>UsersModule&#45;&gt;UserRefreshTokensService </title>
<path fill="none" stroke="black" stroke-dasharray="5,2" d="M283,-149.91C283,-149.91 283,-168.79 283,-168.79"/>
<polygon fill="black" stroke="black" points="279.5,-168.79 283,-178.79 286.5,-168.79 279.5,-168.79"/>
</g>
<!-- UsersModule&#45;&gt;UsersService  -->
<g id="edge3" class="edge">
<title>UsersModule&#45;&gt;UsersService </title>
<path fill="none" stroke="black" stroke-dasharray="5,2" d="M237.1,-137.8C206.74,-137.8 172.5,-137.8 172.5,-137.8 172.5,-137.8 172.5,-168.78 172.5,-168.78"/>
<polygon fill="black" stroke="black" points="169,-168.78 172.5,-178.78 176,-168.78 169,-168.78"/>
</g>
<!-- UserNotificationTokensService -->
<g id="node5" class="node">
<title>UserNotificationTokensService</title>
<ellipse fill="#fdb462" stroke="black" cx="551" cy="-66.8" rx="133.14" ry="18"/>
<text text-anchor="middle" x="551" y="-62.6" font-family="Times,serif" font-size="14.00">UserNotificationTokensService</text>
</g>
<!-- UserNotificationTokensService&#45;&gt;UsersModule -->
<g id="edge4" class="edge">
<title>UserNotificationTokensService&#45;&gt;UsersModule</title>
<path fill="none" stroke="black" d="M501.03,-83.55C501.03,-100.99 501.03,-125.8 501.03,-125.8 501.03,-125.8 338.97,-125.8 338.97,-125.8"/>
<polygon fill="black" stroke="black" points="338.97,-122.3 328.97,-125.8 338.97,-129.3 338.97,-122.3"/>
</g>
<!-- UserRefreshTokensService -->
<g id="node6" class="node">
<title>UserRefreshTokensService</title>
<ellipse fill="#fdb462" stroke="black" cx="283" cy="-66.8" rx="116.88" ry="18"/>
<text text-anchor="middle" x="283" y="-62.6" font-family="Times,serif" font-size="14.00">UserRefreshTokensService</text>
</g>
<!-- UserRefreshTokensService&#45;&gt;UsersModule -->
<g id="edge5" class="edge">
<title>UserRefreshTokensService&#45;&gt;UsersModule</title>
<path fill="none" stroke="black" d="M283,-84.91C283,-84.91 283,-103.79 283,-103.79"/>
<polygon fill="black" stroke="black" points="279.5,-103.79 283,-113.79 286.5,-103.79 279.5,-103.79"/>
</g>
<!-- UsersService -->
<g id="node7" class="node">
<title>UsersService</title>
<ellipse fill="#fdb462" stroke="black" cx="86" cy="-66.8" rx="61.97" ry="18"/>
<text text-anchor="middle" x="86" y="-62.6" font-family="Times,serif" font-size="14.00">UsersService</text>
</g>
<!-- UsersService&#45;&gt;UsersModule -->
<g id="edge6" class="edge">
<title>UsersService&#45;&gt;UsersModule</title>
<path fill="none" stroke="black" d="M116.65,-82.61C116.65,-100.09 116.65,-125.8 116.65,-125.8 116.65,-125.8 227.1,-125.8 227.1,-125.8"/>
<polygon fill="black" stroke="black" points="227.1,-129.3 237.1,-125.8 227.1,-122.3 227.1,-129.3"/>
</g>
</g>
</svg>
