<?xml version="1.0" encoding="UTF-8" standalone="no"?>
<!DOCTYPE svg PUBLIC "-//W3C//DTD SVG 1.1//EN"
 "http://www.w3.org/Graphics/SVG/1.1/DTD/svg11.dtd">
<!-- Generated by graphviz version 2.47.3 (20210619.1520)
 -->
<!-- Title: dependencies Pages: 1 -->
<svg width="886pt" height="174pt"
 viewBox="0.00 0.00 886.00 173.80" xmlns="http://www.w3.org/2000/svg" xmlns:xlink="http://www.w3.org/1999/xlink">
<g id="graph0" class="graph" transform="scale(1 1) rotate(0) translate(4 169.8)">
<title>dependencies</title>
<polygon fill="white" stroke="transparent" points="-4,4 -4,-169.8 882,-169.8 882,4 -4,4"/>
<text text-anchor="middle" x="439" y="-8.2" font-family="sans-serif" font-size="14.00">dependencies</text>
<g id="clust1" class="cluster">
<title>cluster_AppModule</title>
<polygon fill="none" stroke="black" stroke-dasharray="1,5" points="8,-32.8 8,-157.8 870,-157.8 870,-32.8 8,-32.8"/>
</g>
<g id="clust3" class="cluster">
<title>cluster_AppModule_imports</title>
<polygon fill="none" stroke="black" points="16,-40.8 16,-92.8 862,-92.8 862,-40.8 16,-40.8"/>
</g>
<!-- AuthModule -->
<g id="node1" class="node">
<title>AuthModule</title>
<polygon fill="#8dd3c7" stroke="black" points="853.55,-84.8 850.55,-88.8 829.55,-88.8 826.55,-84.8 766.45,-84.8 766.45,-48.8 853.55,-48.8 853.55,-84.8"/>
<text text-anchor="middle" x="810" y="-62.6" font-family="Times,serif" font-size="14.00">AuthModule</text>
</g>
<!-- AppModule -->
<g id="node8" class="node">
<title>AppModule</title>
<polygon fill="#8dd3c7" stroke="black" points="500.66,-149.8 497.66,-153.8 476.66,-153.8 473.66,-149.8 417.34,-149.8 417.34,-113.8 500.66,-113.8 500.66,-149.8"/>
<text text-anchor="middle" x="459" y="-127.6" font-family="Times,serif" font-size="14.00">AppModule</text>
</g>
<!-- AuthModule&#45;&gt;AppModule -->
<g id="edge1" class="edge">
<title>AuthModule&#45;&gt;AppModule</title>
<path fill="none" stroke="black" d="M810,-85.09C810,-107.01 810,-140.8 810,-140.8 810,-140.8 510.99,-140.8 510.99,-140.8"/>
<polygon fill="black" stroke="black" points="510.99,-137.3 500.99,-140.8 510.99,-144.3 510.99,-137.3"/>
</g>
<!-- ConfigModule -->
<g id="node2" class="node">
<title>ConfigModule</title>
<polygon fill="#8dd3c7" stroke="black" points="748.44,-84.8 745.44,-88.8 724.44,-88.8 721.44,-84.8 649.56,-84.8 649.56,-48.8 748.44,-48.8 748.44,-84.8"/>
<text text-anchor="middle" x="699" y="-62.6" font-family="Times,serif" font-size="14.00">ConfigModule</text>
</g>
<!-- ConfigModule&#45;&gt;AppModule -->
<g id="edge2" class="edge">
<title>ConfigModule&#45;&gt;AppModule</title>
<path fill="none" stroke="black" d="M699,-84.91C699,-104.14 699,-131.8 699,-131.8 699,-131.8 510.8,-131.8 510.8,-131.8"/>
<polygon fill="black" stroke="black" points="510.8,-128.3 500.8,-131.8 510.8,-135.3 510.8,-128.3"/>
</g>
<!-- DatabaseModule -->
<g id="node3" class="node">
<title>DatabaseModule</title>
<polygon fill="#8dd3c7" stroke="black" points="631.35,-84.8 628.35,-88.8 607.35,-88.8 604.35,-84.8 520.65,-84.8 520.65,-48.8 631.35,-48.8 631.35,-84.8"/>
<text text-anchor="middle" x="576" y="-62.6" font-family="Times,serif" font-size="14.00">DatabaseModule</text>
</g>
<!-- DatabaseModule&#45;&gt;AppModule -->
<g id="edge3" class="edge">
<title>DatabaseModule&#45;&gt;AppModule</title>
<path fill="none" stroke="black" d="M576,-84.83C576,-101.2 576,-122.8 576,-122.8 576,-122.8 510.91,-122.8 510.91,-122.8"/>
<polygon fill="black" stroke="black" points="510.91,-119.3 500.91,-122.8 510.91,-126.3 510.91,-119.3"/>
</g>
<!-- FilesModule -->
<g id="node4" class="node">
<title>FilesModule</title>
<polygon fill="#8dd3c7" stroke="black" points="502.27,-84.8 499.27,-88.8 478.27,-88.8 475.27,-84.8 415.73,-84.8 415.73,-48.8 502.27,-48.8 502.27,-84.8"/>
<text text-anchor="middle" x="459" y="-62.6" font-family="Times,serif" font-size="14.00">FilesModule</text>
</g>
<!-- FilesModule&#45;&gt;AppModule -->
<g id="edge4" class="edge">
<title>FilesModule&#45;&gt;AppModule</title>
<path fill="none" stroke="black" d="M459,-84.91C459,-84.91 459,-103.79 459,-103.79"/>
<polygon fill="black" stroke="black" points="455.5,-103.79 459,-113.79 462.5,-103.79 455.5,-103.79"/>
</g>
<!-- MultipartModule -->
<g id="node5" class="node">
<title>MultipartModule</title>
<polygon fill="#8dd3c7" stroke="black" points="397.43,-84.8 394.43,-88.8 373.43,-88.8 370.43,-84.8 284.57,-84.8 284.57,-48.8 397.43,-48.8 397.43,-84.8"/>
<text text-anchor="middle" x="341" y="-62.6" font-family="Times,serif" font-size="14.00">MultipartModule</text>
</g>
<!-- MultipartModule&#45;&gt;AppModule -->
<g id="edge5" class="edge">
<title>MultipartModule&#45;&gt;AppModule</title>
<path fill="none" stroke="black" d="M341,-84.83C341,-101.2 341,-122.8 341,-122.8 341,-122.8 407.07,-122.8 407.07,-122.8"/>
<polygon fill="black" stroke="black" points="407.07,-126.3 417.07,-122.8 407.07,-119.3 407.07,-126.3"/>
</g>
<!-- NotificationsModule -->
<g id="node6" class="node">
<title>NotificationsModule</title>
<polygon fill="#8dd3c7" stroke="black" points="266.14,-84.8 263.14,-88.8 242.14,-88.8 239.14,-84.8 133.86,-84.8 133.86,-48.8 266.14,-48.8 266.14,-84.8"/>
<text text-anchor="middle" x="200" y="-62.6" font-family="Times,serif" font-size="14.00">NotificationsModule</text>
</g>
<!-- NotificationsModule&#45;&gt;AppModule -->
<g id="edge6" class="edge">
<title>NotificationsModule&#45;&gt;AppModule</title>
<path fill="none" stroke="black" d="M200,-84.91C200,-104.14 200,-131.8 200,-131.8 200,-131.8 407.1,-131.8 407.1,-131.8"/>
<polygon fill="black" stroke="black" points="407.1,-135.3 417.1,-131.8 407.1,-128.3 407.1,-135.3"/>
</g>
<!-- UsersModule -->
<g id="node7" class="node">
<title>UsersModule</title>
<polygon fill="#8dd3c7" stroke="black" points="115.92,-84.8 112.92,-88.8 91.92,-88.8 88.92,-84.8 24.08,-84.8 24.08,-48.8 115.92,-48.8 115.92,-84.8"/>
<text text-anchor="middle" x="70" y="-62.6" font-family="Times,serif" font-size="14.00">UsersModule</text>
</g>
<!-- UsersModule&#45;&gt;AppModule -->
<g id="edge7" class="edge">
<title>UsersModule&#45;&gt;AppModule</title>
<path fill="none" stroke="black" d="M70,-85.09C70,-107.01 70,-140.8 70,-140.8 70,-140.8 407,-140.8 407,-140.8"/>
<polygon fill="black" stroke="black" points="407,-144.3 417,-140.8 407,-137.3 407,-144.3"/>
</g>
</g>
</svg>
