<?xml version="1.0" encoding="UTF-8" standalone="no"?>
<!DOCTYPE svg PUBLIC "-//W3C//DTD SVG 1.1//EN"
 "http://www.w3.org/Graphics/SVG/1.1/DTD/svg11.dtd">
<!-- Generated by graphviz version 3.0.0 (20220226.1711)
 -->
<!-- Title: dependencies Pages: 1 -->
<svg width="1116pt" height="174pt"
 viewBox="0.00 0.00 1116.00 173.80" xmlns="http://www.w3.org/2000/svg" xmlns:xlink="http://www.w3.org/1999/xlink">
<g id="graph0" class="graph" transform="scale(1 1) rotate(0) translate(4 169.8)">
<title>dependencies</title>
<polygon fill="white" stroke="transparent" points="-4,4 -4,-169.8 1112,-169.8 1112,4 -4,4"/>
<text text-anchor="middle" x="554" y="-8.2" font-family="sans-serif" font-size="14.00">dependencies</text>
<g id="clust1" class="cluster">
<title>cluster_AppModule</title>
<polygon fill="none" stroke="black" stroke-dasharray="1,5" points="8,-32.8 8,-157.8 1100,-157.8 1100,-32.8 8,-32.8"/>
</g>
<g id="clust3" class="cluster">
<title>cluster_AppModule_imports</title>
<polygon fill="none" stroke="black" points="16,-40.8 16,-92.8 1092,-92.8 1092,-40.8 16,-40.8"/>
</g>
<!-- AuthModule -->
<g id="node1" class="node">
<title>AuthModule</title>
<polygon fill="#8dd3c7" stroke="black" points="1083.55,-84.8 1080.55,-88.8 1059.55,-88.8 1056.55,-84.8 996.45,-84.8 996.45,-48.8 1083.55,-48.8 1083.55,-84.8"/>
<text text-anchor="middle" x="1040" y="-62.6" font-family="Times,serif" font-size="14.00">AuthModule</text>
</g>
<!-- AppModule -->
<g id="node10" class="node">
<title>AppModule</title>
<polygon fill="#8dd3c7" stroke="black" points="621.66,-149.8 618.66,-153.8 597.66,-153.8 594.66,-149.8 538.34,-149.8 538.34,-113.8 621.66,-113.8 621.66,-149.8"/>
<text text-anchor="middle" x="580" y="-127.6" font-family="Times,serif" font-size="14.00">AppModule</text>
</g>
<!-- AuthModule&#45;&gt;AppModule -->
<g id="edge1" class="edge">
<title>AuthModule&#45;&gt;AppModule</title>
<path fill="none" stroke="black" d="M1040,-84.81C1040,-107.29 1040,-142.8 1040,-142.8 1040,-142.8 632.04,-142.8 632.04,-142.8"/>
<polygon fill="black" stroke="black" points="632.04,-139.3 622.04,-142.8 632.04,-146.3 632.04,-139.3"/>
</g>
<!-- ChatsModule -->
<g id="node2" class="node">
<title>ChatsModule</title>
<polygon fill="#8dd3c7" stroke="black" points="978.94,-84.8 975.94,-88.8 954.94,-88.8 951.94,-84.8 887.06,-84.8 887.06,-48.8 978.94,-48.8 978.94,-84.8"/>
<text text-anchor="middle" x="933" y="-62.6" font-family="Times,serif" font-size="14.00">ChatsModule</text>
</g>
<!-- ChatsModule&#45;&gt;AppModule -->
<g id="edge2" class="edge">
<title>ChatsModule&#45;&gt;AppModule</title>
<path fill="none" stroke="black" d="M933,-84.93C933,-105.37 933,-135.8 933,-135.8 933,-135.8 631.88,-135.8 631.88,-135.8"/>
<polygon fill="black" stroke="black" points="631.88,-132.3 621.88,-135.8 631.88,-139.3 631.88,-132.3"/>
</g>
<!-- ConfigModule -->
<g id="node3" class="node">
<title>ConfigModule</title>
<polygon fill="#8dd3c7" stroke="black" points="869.44,-84.8 866.44,-88.8 845.44,-88.8 842.44,-84.8 770.56,-84.8 770.56,-48.8 869.44,-48.8 869.44,-84.8"/>
<text text-anchor="middle" x="820" y="-62.6" font-family="Times,serif" font-size="14.00">ConfigModule</text>
</g>
<!-- ConfigModule&#45;&gt;AppModule -->
<g id="edge3" class="edge">
<title>ConfigModule&#45;&gt;AppModule</title>
<path fill="none" stroke="black" d="M820,-85.07C820,-103.36 820,-128.8 820,-128.8 820,-128.8 631.8,-128.8 631.8,-128.8"/>
<polygon fill="black" stroke="black" points="631.8,-125.3 621.8,-128.8 631.8,-132.3 631.8,-125.3"/>
</g>
<!-- DatabaseModule -->
<g id="node4" class="node">
<title>DatabaseModule</title>
<polygon fill="#8dd3c7" stroke="black" points="752.36,-84.8 749.36,-88.8 728.36,-88.8 725.36,-84.8 641.64,-84.8 641.64,-48.8 752.36,-48.8 752.36,-84.8"/>
<text text-anchor="middle" x="697" y="-62.6" font-family="Times,serif" font-size="14.00">DatabaseModule</text>
</g>
<!-- DatabaseModule&#45;&gt;AppModule -->
<g id="edge4" class="edge">
<title>DatabaseModule&#45;&gt;AppModule</title>
<path fill="none" stroke="black" d="M697,-84.81C697,-100.85 697,-121.8 697,-121.8 697,-121.8 631.91,-121.8 631.91,-121.8"/>
<polygon fill="black" stroke="black" points="631.91,-118.3 621.91,-121.8 631.91,-125.3 631.91,-118.3"/>
</g>
<!-- FilesModule -->
<g id="node5" class="node">
<title>FilesModule</title>
<polygon fill="#8dd3c7" stroke="black" points="623.28,-84.8 620.28,-88.8 599.28,-88.8 596.28,-84.8 536.72,-84.8 536.72,-48.8 623.28,-48.8 623.28,-84.8"/>
<text text-anchor="middle" x="580" y="-62.6" font-family="Times,serif" font-size="14.00">FilesModule</text>
</g>
<!-- FilesModule&#45;&gt;AppModule -->
<g id="edge5" class="edge">
<title>FilesModule&#45;&gt;AppModule</title>
<path fill="none" stroke="black" d="M580,-84.91C580,-84.91 580,-103.79 580,-103.79"/>
<polygon fill="black" stroke="black" points="576.5,-103.79 580,-113.79 583.5,-103.79 576.5,-103.79"/>
</g>
<!-- MultipartModule -->
<g id="node6" class="node">
<title>MultipartModule</title>
<polygon fill="#8dd3c7" stroke="black" points="518.44,-84.8 515.44,-88.8 494.44,-88.8 491.44,-84.8 405.56,-84.8 405.56,-48.8 518.44,-48.8 518.44,-84.8"/>
<text text-anchor="middle" x="462" y="-62.6" font-family="Times,serif" font-size="14.00">MultipartModule</text>
</g>
<!-- MultipartModule&#45;&gt;AppModule -->
<g id="edge6" class="edge">
<title>MultipartModule&#45;&gt;AppModule</title>
<path fill="none" stroke="black" d="M462,-84.81C462,-100.85 462,-121.8 462,-121.8 462,-121.8 528.07,-121.8 528.07,-121.8"/>
<polygon fill="black" stroke="black" points="528.07,-125.3 538.07,-121.8 528.07,-118.3 528.07,-125.3"/>
</g>
<!-- NotificationsModule -->
<g id="node7" class="node">
<title>NotificationsModule</title>
<polygon fill="#8dd3c7" stroke="black" points="387.15,-84.8 384.15,-88.8 363.15,-88.8 360.15,-84.8 254.85,-84.8 254.85,-48.8 387.15,-48.8 387.15,-84.8"/>
<text text-anchor="middle" x="321" y="-62.6" font-family="Times,serif" font-size="14.00">NotificationsModule</text>
</g>
<!-- NotificationsModule&#45;&gt;AppModule -->
<g id="edge7" class="edge">
<title>NotificationsModule&#45;&gt;AppModule</title>
<path fill="none" stroke="black" d="M321,-85.07C321,-103.36 321,-128.8 321,-128.8 321,-128.8 528.1,-128.8 528.1,-128.8"/>
<polygon fill="black" stroke="black" points="528.1,-132.3 538.1,-128.8 528.1,-125.3 528.1,-132.3"/>
</g>
<!-- SocketsModule -->
<g id="node8" class="node">
<title>SocketsModule</title>
<polygon fill="#8dd3c7" stroke="black" points="236.6,-84.8 233.6,-88.8 212.6,-88.8 209.6,-84.8 133.4,-84.8 133.4,-48.8 236.6,-48.8 236.6,-84.8"/>
<text text-anchor="middle" x="185" y="-62.6" font-family="Times,serif" font-size="14.00">SocketsModule</text>
</g>
<!-- SocketsModule&#45;&gt;AppModule -->
<g id="edge8" class="edge">
<title>SocketsModule&#45;&gt;AppModule</title>
<path fill="none" stroke="black" d="M185,-84.93C185,-105.37 185,-135.8 185,-135.8 185,-135.8 528.1,-135.8 528.1,-135.8"/>
<polygon fill="black" stroke="black" points="528.1,-139.3 538.1,-135.8 528.1,-132.3 528.1,-139.3"/>
</g>
<!-- UsersModule -->
<g id="node9" class="node">
<title>UsersModule</title>
<polygon fill="#8dd3c7" stroke="black" points="115.94,-84.8 112.94,-88.8 91.94,-88.8 88.94,-84.8 24.06,-84.8 24.06,-48.8 115.94,-48.8 115.94,-84.8"/>
<text text-anchor="middle" x="70" y="-62.6" font-family="Times,serif" font-size="14.00">UsersModule</text>
</g>
<!-- UsersModule&#45;&gt;AppModule -->
<g id="edge9" class="edge">
<title>UsersModule&#45;&gt;AppModule</title>
<path fill="none" stroke="black" d="M70,-84.81C70,-107.29 70,-142.8 70,-142.8 70,-142.8 528.26,-142.8 528.26,-142.8"/>
<polygon fill="black" stroke="black" points="528.26,-146.3 538.26,-142.8 528.26,-139.3 528.26,-146.3"/>
</g>
</g>
</svg>
