<?xml version="1.0" encoding="UTF-8" standalone="no"?>
<!DOCTYPE svg PUBLIC "-//W3C//DTD SVG 1.1//EN"
 "http://www.w3.org/Graphics/SVG/1.1/DTD/svg11.dtd">
<!-- Generated by graphviz version 3.0.0 (20220226.1711)
 -->
<!-- Title: dependencies Pages: 1 -->
<svg width="312pt" height="247pt"
 viewBox="0.00 0.00 312.00 246.80" xmlns="http://www.w3.org/2000/svg" xmlns:xlink="http://www.w3.org/1999/xlink">
<g id="graph0" class="graph" transform="scale(1 1) rotate(0) translate(4 242.8)">
<title>dependencies</title>
<polygon fill="white" stroke="transparent" points="-4,4 -4,-242.8 308,-242.8 308,4 -4,4"/>
<text text-anchor="middle" x="152" y="-8.2" font-family="sans-serif" font-size="14.00">dependencies</text>
<g id="clust1" class="cluster">
<title>cluster_SocketsModule</title>
<polygon fill="none" stroke="black" stroke-dasharray="1,5" points="8,-32.8 8,-230.8 296,-230.8 296,-32.8 8,-32.8"/>
</g>
<g id="clust4" class="cluster">
<title>cluster_SocketsModule_exports</title>
<polygon fill="none" stroke="black" points="99,-170.8 99,-222.8 221,-222.8 221,-170.8 99,-170.8"/>
</g>
<g id="clust3" class="cluster">
<title>cluster_SocketsModule_imports</title>
<polygon fill="none" stroke="black" points="180,-40.8 180,-92.8 288,-92.8 288,-40.8 180,-40.8"/>
</g>
<g id="clust6" class="cluster">
<title>cluster_SocketsModule_providers</title>
<polygon fill="none" stroke="black" points="16,-40.8 16,-92.8 172,-92.8 172,-40.8 16,-40.8"/>
</g>
<!-- UsersModule -->
<g id="node1" class="node">
<title>UsersModule</title>
<polygon fill="#8dd3c7" stroke="black" points="279.94,-84.8 276.94,-88.8 255.94,-88.8 252.94,-84.8 188.06,-84.8 188.06,-48.8 279.94,-48.8 279.94,-84.8"/>
<text text-anchor="middle" x="234" y="-62.6" font-family="Times,serif" font-size="14.00">UsersModule</text>
</g>
<!-- SocketsModule -->
<g id="node2" class="node">
<title>SocketsModule</title>
<polygon fill="#8dd3c7" stroke="black" points="211.6,-149.8 208.6,-153.8 187.6,-153.8 184.6,-149.8 108.4,-149.8 108.4,-113.8 211.6,-113.8 211.6,-149.8"/>
<text text-anchor="middle" x="160" y="-127.6" font-family="Times,serif" font-size="14.00">SocketsModule</text>
</g>
<!-- UsersModule&#45;&gt;SocketsModule -->
<g id="edge1" class="edge">
<title>UsersModule&#45;&gt;SocketsModule</title>
<path fill="none" stroke="black" d="M199.92,-84.91C199.92,-84.91 199.92,-103.79 199.92,-103.79"/>
<polygon fill="black" stroke="black" points="196.42,-103.79 199.92,-113.79 203.42,-103.79 196.42,-103.79"/>
</g>
<!-- SocketsService  -->
<g id="node3" class="node">
<title>SocketsService </title>
<polygon fill="#fb8072" stroke="black" points="212.53,-214.8 107.47,-214.8 107.47,-178.8 212.53,-178.8 212.53,-214.8"/>
<text text-anchor="middle" x="160" y="-192.6" font-family="Times,serif" font-size="14.00">SocketsService </text>
</g>
<!-- SocketsModule&#45;&gt;SocketsService  -->
<g id="edge2" class="edge">
<title>SocketsModule&#45;&gt;SocketsService </title>
<path fill="none" stroke="black" stroke-dasharray="5,2" d="M160,-149.91C160,-149.91 160,-168.79 160,-168.79"/>
<polygon fill="black" stroke="black" points="156.5,-168.79 160,-178.79 163.5,-168.79 156.5,-168.79"/>
</g>
<!-- SocketsService -->
<g id="node4" class="node">
<title>SocketsService</title>
<ellipse fill="#fdb462" stroke="black" cx="94" cy="-66.8" rx="70.07" ry="18"/>
<text text-anchor="middle" x="94" y="-62.6" font-family="Times,serif" font-size="14.00">SocketsService</text>
</g>
<!-- SocketsService&#45;&gt;SocketsModule -->
<g id="edge3" class="edge">
<title>SocketsService&#45;&gt;SocketsModule</title>
<path fill="none" stroke="black" d="M136.24,-81.23C136.24,-81.23 136.24,-103.69 136.24,-103.69"/>
<polygon fill="black" stroke="black" points="132.74,-103.69 136.24,-113.69 139.74,-103.69 132.74,-103.69"/>
</g>
</g>
</svg>
